<svg xmlns="http://www.w3.org/2000/svg" viewBox="0 0 1184 1184" role="img" aria-labelledby="title">
  <title id="title">DevLog logo</title>
  <path
    fill="#0a0a0a"
    d="M194 449c-52-101-57-218-14-323 13-31 37-28 52 5 23 55 68 101 128 129 132-71 310-73 445 0 64-24 115-76 132-133 10-33 36-28 52 3 41 98 34 221-16 319 28 62 37 133 32 208 35-1 61-26 76-30 28-7 21 59-29 112 35-4 15 43-33 73 5 57 7 147-49 206-51 56-101 10-134 13-52 6-63 64-126 64-61-1-74-55-128-55-52 0-68 57-130 55-57-2-75-57-121-68-45-11-69 44-117 15-64-38-58-136-51-227-43-19-72-47-54-65-42-34-56-110-30-122 20-10 49 28 83 28-5-76 4-146 32-207Z"
  />
  <g fill="none" stroke="#fff" stroke-linecap="round" stroke-linejoin="round" stroke-width="46">
    <path d="m390 584 101 98-101 98" />
    <path d="M582 781h142" />
  </g>
</svg>
