<svg xmlns="http://www.w3.org/2000/svg" viewBox="0 0 634 628" role="img" aria-labelledby="title">
  <title id="title">DevLog logo</title>
  <path
    fill="#0a0a0a"
    d="M107 240C78 185 76 112 96 67c8-19 23-12 32 13 12 31 38 50 69 60 70-35 167-39 239 0 32-10 57-35 68-69 7-22 22-19 32 0 20 39 19 112-8 169 15 34 21 73 17 113 19 1 35-13 47-16 20-5 7 38-22 60 27 9 3 36-21 49 12 39-5 91-33 113-24 19-40-17-66-9-27 9-36 40-68 40-31 0-40-31-66-31s-37 31-70 31c-30 0-43-31-67-39-24-7-36 27-62 15-38-17-36-70-30-117-25-11-39-28-24-36-23-17-38-61-21-72 12-8 27 14 45 14-3-41 2-81 16-113Z"
  />
  <g fill="none" stroke="#fff" stroke-linecap="round" stroke-width="24">
    <path d="m188 291 61 61m0-61-61 61" />
    <path d="m284 410 33 33-33 33m55-10h43" />
  </g>
  <ellipse cx="418" cy="320" rx="32" ry="48" fill="#fff" />
</svg>
